<svg width="11" height="11" viewBox="0 0 11 11" fill="none" xmlns="http://www.w3.org/2000/svg">
<path d="M9.34845 4.19046L9.34231 4.18433C9.34181 4.18399 9.34142 4.18353 9.34117 4.183L5.50824 0.349976L1.67535 4.1829C1.6749 4.18335 1.67421 4.18424 1.67421 4.18424L1.66789 4.19036C1.08179 4.77976 0.709508 5.54815 0.610239 6.37342C0.51097 7.19869 0.690405 8.03346 1.12002 8.74505C1.54963 9.45664 2.20477 10.0042 2.98129 10.3007C3.7578 10.5971 4.61114 10.6255 5.40563 10.3813C5.47249 10.3608 5.54395 10.3608 5.61081 10.3813C6.40524 10.6254 7.25853 10.597 8.035 10.3005C8.81147 10.004 9.46653 9.45649 9.89612 8.74495C10.3257 8.03341 10.5052 7.19869 10.4059 6.37347C10.3067 5.54825 9.93447 4.77986 9.34845 4.19046ZM3.03827 6.71803C3.01961 6.73669 3.00482 6.75886 2.99473 6.78321C2.98463 6.80756 2.97943 6.83369 2.97944 6.86007C2.98626 7.53657 3.17744 8.19837 3.53241 8.7743C3.54048 8.78736 3.5442 8.80266 3.54306 8.81795C3.54192 8.83324 3.53596 8.84779 3.52605 8.85952C3.51613 8.87125 3.50276 8.87952 3.48786 8.88318C3.47295 8.88684 3.45727 8.8857 3.44305 8.87991C3.1762 8.76767 2.93377 8.60449 2.72933 8.39955C2.31036 7.98051 2.07483 7.4123 2.07445 6.81974C2.07407 6.22718 2.30887 5.65867 2.7273 5.23911L5.50824 2.45844L8.28903 5.23911C8.70753 5.65862 8.94242 6.22713 8.94202 6.81974C8.94168 7.4123 8.7061 7.98051 8.2871 8.39955C8.08266 8.60449 7.84025 8.76767 7.57344 8.87991C7.55919 8.8857 7.5435 8.88684 7.5286 8.88318C7.5137 8.87952 7.50034 8.8712 7.49039 8.85952C7.48049 8.84779 7.47451 8.83324 7.47337 8.8179C7.47223 8.80261 7.47594 8.78731 7.48401 8.77425C7.83906 8.19837 8.03034 7.53657 8.03727 6.86007C8.03727 6.83369 8.03203 6.80756 8.02188 6.78316C8.01173 6.75876 7.99689 6.73664 7.97818 6.71798L6.66285 5.32282C6.64973 5.31188 6.63325 5.30589 6.61618 5.30589C6.59915 5.30589 6.58262 5.31188 6.56956 5.32282C6.55644 5.33371 6.54763 5.3489 6.54456 5.36568C6.54149 5.38246 6.54441 5.39973 6.55283 5.41458C7.06368 6.33903 6.62439 7.66688 5.89182 8.39955L5.88796 8.40341C5.78685 8.50343 5.65035 8.55951 5.50814 8.55946C5.36591 8.55941 5.22944 8.50323 5.12841 8.40316L5.12485 8.39955C4.39201 7.66688 3.95295 6.33917 4.46389 5.41477C4.47229 5.39993 4.47522 5.38265 4.47216 5.36588C4.4691 5.3491 4.46026 5.33391 4.44717 5.32302C4.43408 5.31208 4.41757 5.30609 4.40052 5.30609C4.38347 5.30609 4.36696 5.31208 4.35387 5.32302L3.03827 6.71803Z" fill="#F53838"/>
</svg>
